  0
SECTION
  2
BLOCKS
  0
ENDSEC
  0
SECTION
  2
ENTITIES
  0
LINE
  8
0
 10
-6.36958
 20
-7.5
 11
-2.5482
 21
-7.5
  0
LINE
  8
0
 10
-2.5482
 20
-7.5
 11
-2.5482
 21
7.5
  0
LINE
  8
0
 10
-2.5482
 20
7.5
 11
-6.36958
 21
7.5
  0
LINE
  8
0
 10
-6.36958
 20
7.5
 11
-6.36958
 21
6.7
  0
LINE
  8
0
 10
-6.36958
 20
6.7
 11
-3.3
 21
6.7
  0
LINE
  8
0
 10
-3.3
 20
6.7
 11
-3.3
 21
7.77196e-016
  0
LINE
  8
0
 10
-3.3
 20
7.77196e-016
 11
-3.3
 21
-6.7
  0
LINE
  8
0
 10
-3.3
 20
-6.7
 11
-6.36958
 21
-6.7
  0
LINE
  8
0
 10
-6.36958
 20
-6.7
 11
-6.36958
 21
-7.5
  0
LINE
  8
0
 10
-6.36958
 20
-6.65
 11
-3.39936
 21
-6.65
  0
LINE
  8
0
 10
-3.39936
 20
-6.65
 11
-3.39936
 21
6.65
  0
LINE
  8
0
 10
-3.39936
 20
6.65
 11
-6.36958
 21
6.65
  0
LINE
  8
0
 10
-6.36958
 20
6.65
 11
-6.36958
 21
-6.65
  0
LINE
  8
0
 10
-2.49815
 20
-7.5
 11
2.49913
 21
-7.5
  0
LINE
  8
0
 10
2.49913
 20
-7.5
 11
2.49913
 21
7.5
  0
LINE
  8
0
 10
2.49913
 20
7.5
 11
-2.49815
 21
7.5
  0
LINE
  8
0
 10
-2.49815
 20
7.5
 11
-2.49815
 21
-7.5
  0
LINE
  8
0
 10
2.54916
 20
-7.5
 11
6.36997
 21
-7.5
  0
LINE
  8
0
 10
6.36997
 20
-7.5
 11
6.36997
 21
-6.7
  0
LINE
  8
0
 10
6.36997
 20
-6.7
 11
3.3
 21
-6.7
  0
LINE
  8
0
 10
3.3
 20
-6.7
 11
3.3
 21
-7.77196e-016
  0
LINE
  8
0
 10
3.3
 20
-7.77196e-016
 11
3.3
 21
6.7
  0
LINE
  8
0
 10
3.3
 20
6.7
 11
6.36997
 21
6.7
  0
LINE
  8
0
 10
6.36997
 20
6.7
 11
6.36997
 21
7.5
  0
LINE
  8
0
 10
6.36997
 20
7.5
 11
2.54916
 21
7.5
  0
LINE
  8
0
 10
2.54916
 20
7.5
 11
2.54916
 21
-7.5
  0
LINE
  8
0
 10
3.39863
 20
-6.65
 11
6.36997
 21
-6.65
  0
LINE
  8
0
 10
6.36997
 20
-6.65
 11
6.36997
 21
6.65
  0
LINE
  8
0
 10
6.36997
 20
6.65
 11
3.39863
 21
6.65
  0
LINE
  8
0
 10
3.39863
 20
6.65
 11
3.39863
 21
-6.65
  0
ENDSEC
  0
SECTION
  2
OBJECTS
  0
DICTIONARY
  0
ENDSEC
  0
EOF
