  0
SECTION
  2
BLOCKS
  0
ENDSEC
  0
SECTION
  2
ENTITIES
  0
LINE
  8
0
 10
-42.5
 20
-11
 11
-15.4997
 21
-11
  0
LINE
  8
0
 10
-15.4997
 20
-11
 11
-15.4997
 21
-3.65039e-015
  0
LINE
  8
0
 10
-15.4997
 20
-3.65039e-015
 11
-42.5
 21
-1.00093e-014
  0
LINE
  8
0
 10
-42.5
 20
-1.00093e-014
 11
-42.5
 21
-11
  0
LINE
  8
0
 10
-15.4994
 20
-0.8
 11
-12.3797
 21
-0.8
  0
LINE
  8
0
 10
-12.3797
 20
-0.8
 11
-12.3797
 21
-14.2
  0
LINE
  8
0
 10
-12.3797
 20
-14.2
 11
-15.4994
 21
-14.2
  0
LINE
  8
0
 10
-15.4994
 20
-14.2
 11
-15.4994
 21
-15
  0
LINE
  8
0
 10
-15.4994
 20
-15
 11
-11.5778
 21
-15
  0
LINE
  8
0
 10
-11.5778
 20
-15
 11
-11.5778
 21
-2.72674e-015
  0
LINE
  8
0
 10
-11.5778
 20
-2.72674e-015
 11
-15.4994
 21
-3.65033e-015
  0
LINE
  8
0
 10
-15.4994
 20
-3.65033e-015
 11
-15.4994
 21
-0.8
  0
LINE
  8
0
 10
-6.58056
 20
-1.54981e-015
 11
-6.58056
 21
-15
  0
LINE
  8
0
 10
-6.58056
 20
-15
 11
-2.65996
 21
-15
  0
LINE
  8
0
 10
-2.65996
 20
-15
 11
-2.65996
 21
-14.2
  0
LINE
  8
0
 10
-2.65996
 20
-14.2
 11
-5.77969
 21
-14.2
  0
LINE
  8
0
 10
-5.77969
 20
-14.2
 11
-5.77969
 21
-0.8
  0
LINE
  8
0
 10
-5.77969
 20
-0.8
 11
-2.65996
 21
-0.8
  0
LINE
  8
0
 10
-2.65996
 20
-0.8
 11
-2.65996
 21
-6.26458e-016
  0
LINE
  8
0
 10
-2.65996
 20
-6.26458e-016
 11
-6.58056
 21
-1.54981e-015
  0
LINE
  8
0
 10
2.65996
 20
-0.8
 11
5.77969
 21
-0.8
  0
LINE
  8
0
 10
5.77969
 20
-0.8
 11
5.77969
 21
-14.2
  0
LINE
  8
0
 10
5.77969
 20
-14.2
 11
2.65996
 21
-14.2
  0
LINE
  8
0
 10
2.65996
 20
-14.2
 11
2.65996
 21
-15
  0
LINE
  8
0
 10
2.65996
 20
-15
 11
6.58154
 21
-15
  0
LINE
  8
0
 10
6.58154
 20
-15
 11
6.58154
 21
1.55004e-015
  0
LINE
  8
0
 10
6.58154
 20
1.55004e-015
 11
2.65996
 21
6.26458e-016
  0
LINE
  8
0
 10
2.65996
 20
6.26458e-016
 11
2.65996
 21
-0.8
  0
LINE
  8
0
 10
11.5788
 20
2.72697e-015
 11
11.5788
 21
-15
  0
LINE
  8
0
 10
11.5788
 20
-15
 11
15.4994
 21
-15
  0
LINE
  8
0
 10
15.4994
 20
-15
 11
15.4994
 21
-14.2
  0
LINE
  8
0
 10
15.4994
 20
-14.2
 11
12.3797
 21
-14.2
  0
LINE
  8
0
 10
12.3797
 20
-14.2
 11
12.3797
 21
-0.8
  0
LINE
  8
0
 10
12.3797
 20
-0.8
 11
15.4994
 21
-0.8
  0
LINE
  8
0
 10
15.4994
 20
-0.8
 11
15.4994
 21
3.65033e-015
  0
LINE
  8
0
 10
15.4994
 20
3.65033e-015
 11
11.5788
 21
2.72697e-015
  0
LINE
  8
0
 10
15.4999
 20
3.65043e-015
 11
15.4999
 21
-11
  0
LINE
  8
0
 10
15.4999
 20
-11
 11
42.5
 21
-11
  0
LINE
  8
0
 10
42.5
 20
-11
 11
42.5
 21
1.00093e-014
  0
LINE
  8
0
 10
42.5
 20
1.00093e-014
 11
15.4999
 21
3.65043e-015
  0
ENDSEC
  0
SECTION
  2
OBJECTS
  0
DICTIONARY
  0
ENDSEC
  0
EOF
