<?xml version="1.0" encoding="UTF-8" standalone="no"?>
<!-- Created with Inkscape (http://www.inkscape.org/) -->

<svg
   xmlns:dc="http://purl.org/dc/elements/1.1/"
   xmlns:cc="http://creativecommons.org/ns#"
   xmlns:rdf="http://www.w3.org/1999/02/22-rdf-syntax-ns#"
   xmlns:svg="http://www.w3.org/2000/svg"
   xmlns="http://www.w3.org/2000/svg"
   xmlns:sodipodi="http://sodipodi.sourceforge.net/DTD/sodipodi-0.dtd"
   xmlns:inkscape="http://www.inkscape.org/namespaces/inkscape"
   width="210mm"
   height="297mm"
   viewBox="0 0 744.09448819 1052.3622047"
   id="svg2"
   version="1.1"
   inkscape:version="0.91 r13725"
   sodipodi:docname="MLX_Copper.svg">
  <defs
     id="defs4" />
  <sodipodi:namedview
     id="base"
     pagecolor="#ffffff"
     bordercolor="#666666"
     borderopacity="1.0"
     inkscape:pageopacity="0.0"
     inkscape:pageshadow="2"
     inkscape:zoom="7.4955181"
     inkscape:cx="129.3701"
     inkscape:cy="778.31469"
     inkscape:document-units="mm"
     inkscape:current-layer="layer3"
     showgrid="false"
     inkscape:snap-midpoints="true"
     inkscape:object-nodes="true"
     inkscape:window-width="1920"
     inkscape:window-height="1138"
     inkscape:window-x="-8"
     inkscape:window-y="-8"
     inkscape:window-maximized="1"
     showguides="true"
     inkscape:guide-bbox="true"
     inkscape:snap-center="true"
     inkscape:object-paths="false"
     inkscape:snap-smooth-nodes="true">
    <sodipodi:guide
       position="60.745501,835.78798"
       orientation="0,1"
       id="guide4262" />
    <sodipodi:guide
       position="55.345703,845.58292"
       orientation="1,0"
       id="guide4311" />
    <sodipodi:guide
       position="59.845703,868.05208"
       orientation="1,0"
       id="guide4313"
       inkscape:label=""
       inkscape:color="rgb(0,0,255)" />
    <sodipodi:guide
       position="64.345703,854.57737"
       orientation="1,0"
       id="guide4315"
       inkscape:label=""
       inkscape:color="rgb(0,0,255)" />
    <sodipodi:guide
       position="118.90039,780.70402"
       orientation="1,0"
       id="guide4317"
       inkscape:label=""
       inkscape:color="rgb(0,0,255)" />
    <sodipodi:guide
       position="70.121294,825.66921"
       orientation="0,1"
       id="guide4319" />
    <sodipodi:guide
       position="85.050826,846.00779"
       orientation="0,1"
       id="guide4321"
       inkscape:label=""
       inkscape:color="rgb(0,0,255)" />
    <sodipodi:guide
       position="76.696208,775.73546"
       orientation="0,1"
       id="guide4972" />
  </sodipodi:namedview>
  <metadata
     id="metadata7">
    <rdf:RDF>
      <cc:Work
         rdf:about="">
        <dc:format>image/svg+xml</dc:format>
        <dc:type
           rdf:resource="http://purl.org/dc/dcmitype/StillImage" />
        <dc:title></dc:title>
      </cc:Work>
    </rdf:RDF>
  </metadata>
  <g
     inkscape:groupmode="layer"
     id="layer3"
     inkscape:label="Coils">
    <circle
       style="fill:none;fill-rule:evenodd;stroke:#cccccc;stroke-width:1px;stroke-linecap:butt;stroke-linejoin:miter;stroke-opacity:1"
       id="path4136"
       cx="130.09439"
       cy="278.67651"
       r="54.421261" />
    <circle
       style="fill:none;fill-rule:evenodd;stroke:#cccccc;stroke-width:0.99999994px;stroke-linecap:butt;stroke-linejoin:miter;stroke-opacity:1"
       id="path4140"
       cx="107.48434"
       cy="256.06647"
       r="22.346855" />
    <circle
       r="22.346855"
       cy="256.06647"
       cx="152.70444"
       id="circle4142"
       style="fill:none;fill-rule:evenodd;stroke:#cccccc;stroke-width:0.99999994px;stroke-linecap:butt;stroke-linejoin:miter;stroke-opacity:1" />
    <circle
       style="fill:none;fill-rule:evenodd;stroke:#cccccc;stroke-width:0.99999994px;stroke-linecap:butt;stroke-linejoin:miter;stroke-opacity:1"
       id="circle4144"
       cx="107.48434"
       cy="301.28653"
       r="22.346855" />
    <circle
       r="22.346855"
       cy="301.28653"
       cx="152.70444"
       id="circle4146"
       style="fill:none;fill-rule:evenodd;stroke:#cccccc;stroke-width:0.99999994px;stroke-linecap:butt;stroke-linejoin:miter;stroke-opacity:1" />
  </g>
  <g
     inkscape:groupmode="layer"
     id="layer4"
     inkscape:label="Acrylic 1mm">
    <path
       style="color:#000000;clip-rule:nonzero;display:inline;overflow:visible;visibility:visible;opacity:1;isolation:auto;mix-blend-mode:normal;color-interpolation:sRGB;color-interpolation-filters:linearRGB;solid-color:#000000;solid-opacity:1;fill:none;fill-opacity:1;fill-rule:evenodd;stroke:#ff0000;stroke-width:0.17716534;stroke-linecap:round;stroke-linejoin:miter;stroke-miterlimit:4;stroke-dasharray:none;stroke-dashoffset:0;stroke-opacity:1;marker:none;color-rendering:auto;image-rendering:auto;shape-rendering:auto;text-rendering:auto;enable-background:accumulate"
       d="m 114.4707,258.83594 0,5.31445 4.42969,0 0,-1.7207 3.32227,0 0,3.04297 -0.37891,0 0,2.35546 -4.36133,0 -1.59375,0 0,1.59571 0,2.23437 -1.41797,0 0,1.75586 -3.70898,0 0,-1.75586 -4.42969,0 0,5.31446 4.42969,0 0,-1.75586 3.70898,0 0,1.75586 4.42969,0 0,-5.31446 -1.41797,0 0,-2.23437 4.36133,0 0,2.35547 2.55078,0 0,-6.30664 -0.37891,0 0,-3.06055 7.26172,0 0,3.06055 -0.3789,0 0,6.30664 0.39648,0 0,6.08789 0,1.7539 1.75586,0 8.41602,0 0,1.78125 4.42968,0 0,-1.78125 3.91993,0 0,1.78125 4.42968,0 0,-5.31445 -4.42968,0 0,1.7793 -3.91993,0 0,-1.7793 -4.42968,0 0,1.7793 -8.41602,0 0,-6.08789 0.39844,0 0,-6.30664 -0.37891,0 0,-3.06055 0.006,0 0,-1.83789 -10.85351,0 -3.32227,0 0,-1.73828 z m 11.86719,6.63672 0,6.30664 0.36914,0 0,10.52343 -7.80664,0 0,-1.78515 -4.42969,0 0,5.31445 4.42969,0 0,-1.78515 7.80664,0 0,1.6621 -0.36914,0 0,2.11719 0,2.07422 0,2.11523 0.4082,0 0,2.4629 -7.8457,0 0,-1.73828 -4.42969,0 0,5.31446 4.42969,0 0,-1.73829 7.8457,0 1.73438,0 0,-1.83789 0,-2.4629 0.4082,0 0,-2.11523 2.00977,0 0,2.11523 2.55078,0 0,-6.30664 -2.55078,0 0,2.11719 -2.00977,0 0,-2.11719 -0.36914,0 0,-13.92968 0.36914,0 0,-6.30664 z"
       id="rect4970"
       inkscape:connector-curvature="0"
       sodipodi:nodetypes="ccccccccccccccccccccccccccccccccccccccccccccccccccccccccccccccccccccccccccccccccccccccccccccccccccccccccccccc" />
    <circle
       style="fill:#ff0000;fill-rule:evenodd;stroke:#000000;stroke-width:1px;stroke-linecap:butt;stroke-linejoin:miter;stroke-opacity:1"
       id="path4987"
       cx="107.48434"
       cy="301.28653"
       r="6.937479" />
    <path
       inkscape:transform-center-x="-33.783559"
       style="fill:none;fill-rule:evenodd;stroke:#ff0000;stroke-width:0.17716535;stroke-linecap:butt;stroke-linejoin:miter;stroke-opacity:1;stroke-miterlimit:4;stroke-dasharray:none"
       d="m 175.05131,301.28655 c 0.0407,-12.14497 -7.71992,-16.0076 -7.75628,-22.73024 -0.0385,-7.12639 7.59496,-8.61411 7.75628,-22.48982 0,-12.65058 -11.69197,-22.34689 -22.34688,-22.34689 -12.14497,-0.0407 -16.0076,7.71992 -22.73024,7.75628 -7.12639,0.0385 -8.61411,-7.59496 -22.48982,-7.75628 -12.650571,0 -22.346888,11.69197 -22.34689,22.34687 -0.0407,12.14497 7.719918,16.0076 7.756278,22.73024 0.0385,7.12639 -7.59496,8.61411 -7.75628,22.48982 0,12.65058 11.69197,22.34689 22.346872,22.34689 12.14497,0.0407 16.0076,-7.71991 22.73024,-7.75627 7.12639,-0.0385 8.61411,7.59496 22.48982,7.75628 12.65058,0 22.34689,-11.69197 22.34689,-22.34688"
       id="path5023"
       inkscape:connector-curvature="0"
       sodipodi:nodetypes="csccsccsccscc"
       inkscape:transform-center-y="-11.173438" />
  </g>
  <g
     inkscape:label="Copper"
     inkscape:groupmode="layer"
     id="layer1">
    <path
       style="color:#000000;clip-rule:nonzero;display:inline;overflow:visible;visibility:visible;opacity:1;isolation:auto;mix-blend-mode:normal;color-interpolation:sRGB;color-interpolation-filters:linearRGB;solid-color:#000000;solid-opacity:1;fill:none;fill-opacity:1;fill-rule:evenodd;stroke:#ff0000;stroke-width:0.17716534;stroke-linecap:round;stroke-linejoin:miter;stroke-miterlimit:4;stroke-dasharray:none;stroke-dashoffset:0;stroke-opacity:1;marker:none;color-rendering:auto;image-rendering:auto;shape-rendering:auto;text-rendering:auto;enable-background:accumulate"
       d="m 106.33243,280.51719 0,5.31445 1.31836,0 0,2.13573 0,1.79296 1.79297,0 12.40039,0 0,2.25586 2.55078,0 0,-6.30664 -2.55078,0 0,2.25782 -12.40039,0 0,-2.13573 1.31835,0 0,-5.31445 z"
       id="use4156"
       inkscape:connector-curvature="0"
       sodipodi:nodetypes="ccccccccccccccccc" />
    <path
       style="color:#000000;clip-rule:nonzero;display:inline;overflow:visible;visibility:visible;opacity:1;isolation:auto;mix-blend-mode:normal;color-interpolation:sRGB;color-interpolation-filters:linearRGB;solid-color:#000000;solid-opacity:1;fill:none;fill-opacity:1;fill-rule:evenodd;stroke:#ff0000;stroke-width:0.17716534;stroke-linecap:round;stroke-linejoin:miter;stroke-miterlimit:4;stroke-dasharray:none;stroke-dashoffset:0;stroke-opacity:1;marker:none;color-rendering:auto;image-rendering:auto;shape-rendering:auto;text-rendering:auto;enable-background:accumulate"
       d="m 135.84219,265.37166 0,6.30664 2.55078,0 0,-2.27539 3.07422,0 0,3.14063 4.42969,0 0,-3.14063 11.55469,0 0,1.7793 4.42969,0 0,-5.31445 -4.42969,0 0,1.77929 -11.55469,0 0,-0.41797 -4.42969,0 0,0.41797 -3.07422,0 0,-2.27539 -2.55078,0 z"
       id="use4166"
       inkscape:connector-curvature="0" />
    <path
       style="color:#000000;clip-rule:nonzero;display:inline;overflow:visible;visibility:visible;opacity:1;isolation:auto;mix-blend-mode:normal;color-interpolation:sRGB;color-interpolation-filters:linearRGB;solid-color:#000000;solid-opacity:1;fill:none;fill-opacity:1;fill-rule:evenodd;stroke:#ff0000;stroke-width:0.17716534;stroke-linecap:round;stroke-linejoin:miter;stroke-miterlimit:4;stroke-dasharray:none;stroke-dashoffset:0;stroke-opacity:1;marker:none;color-rendering:auto;image-rendering:auto;shape-rendering:auto;text-rendering:auto;enable-background:accumulate"
       d="m 149.8168,284.94783 0,3.03907 -11.92187,0 0,-2.27735 -2.55078,0 0,6.30664 2.55078,0 0,-2.27539 11.92187,0 0,0.52149 4.42969,0 0,-0.52149 2.70703,0 0,1.7793 4.42969,0 0,-5.31445 -4.42969,0 0,1.78125 -2.70703,0 0,-3.03907 -4.42969,0 z"
       id="use4168"
       inkscape:connector-curvature="0" />
    <text
       xml:space="preserve"
       style="font-style:normal;font-weight:normal;font-size:5.65182781px;line-height:125%;font-family:Sans;letter-spacing:0px;word-spacing:0px;fill:#000000;fill-opacity:1;stroke:none;stroke-width:1px;stroke-linecap:butt;stroke-linejoin:miter;stroke-opacity:1"
       x="111.03286"
       y="257.10324"
       id="text4282"
       sodipodi:linespacing="125%"><tspan
         sodipodi:role="line"
         id="tspan4284"
         x="111.03286"
         y="257.10324">Gnd</tspan></text>
    <text
       sodipodi:linespacing="125%"
       id="text4286"
       y="304.05878"
       x="111.34721"
       style="font-style:normal;font-weight:normal;font-size:5.65182781px;line-height:125%;font-family:Sans;letter-spacing:0px;word-spacing:0px;fill:#000000;fill-opacity:1;stroke:none;stroke-width:1px;stroke-linecap:butt;stroke-linejoin:miter;stroke-opacity:1"
       xml:space="preserve"><tspan
         y="304.05878"
         x="111.34721"
         id="tspan4288"
         sodipodi:role="line">Vdd</tspan></text>
    <rect
       style="color:#000000;clip-rule:nonzero;display:inline;overflow:visible;visibility:visible;opacity:1;isolation:auto;mix-blend-mode:normal;color-interpolation:sRGB;color-interpolation-filters:linearRGB;solid-color:#000000;solid-opacity:1;fill:none;fill-opacity:1;fill-rule:evenodd;stroke:#ff0000;stroke-width:0.17716533;stroke-linecap:round;stroke-linejoin:miter;stroke-miterlimit:4;stroke-dasharray:none;stroke-dashoffset:0;stroke-opacity:1;marker:none;color-rendering:auto;image-rendering:auto;shape-rendering:auto;text-rendering:auto;enable-background:accumulate"
       id="rect4363"
       width="61.130558"
       height="44.666862"
       x="103.48799"
       y="257.28766" />
  </g>
  <g
     inkscape:groupmode="layer"
     id="layer2"
     inkscape:label="Label">
    <g
       style="font-style:normal;font-weight:normal;font-size:3.90996099px;line-height:125%;font-family:Sans;letter-spacing:0px;word-spacing:0px;fill:#000000;fill-opacity:1;stroke:none;stroke-width:1px;stroke-linecap:butt;stroke-linejoin:miter;stroke-opacity:1"
       id="text4180"
       transform="translate(67.773834,62.170485)">
      <path
         d="m 56.146762,228.24043 -1.538783,0 0,-0.29019 0.59184,0 0,-1.90534 -0.59184,0 0,-0.25965 q 0.120277,0 0.257737,-0.0191 0.137459,-0.021 0.208098,-0.0592 0.08782,-0.0477 0.13746,-0.12028 0.05155,-0.0745 0.05918,-0.19855 l 0.29592,0 0,2.56209 0.580384,0 0,0.29019 z"
         id="path4220"
         inkscape:connector-curvature="0" />
    </g>
    <g
       style="font-style:normal;font-weight:normal;font-size:3.90996099px;line-height:125%;font-family:Sans;letter-spacing:0px;word-spacing:0px;fill:#000000;fill-opacity:1;stroke:none;stroke-width:1px;stroke-linecap:butt;stroke-linejoin:miter;stroke-opacity:1"
       id="text4187"
       transform="translate(59.655069,62.170485)">
      <path
         d="m 78.070379,227.44049 -0.421925,0 0,0.79994 -0.366558,0 0,-0.79994 -1.361232,0 0,-0.4391 1.376505,-1.6037 0.351285,0 0,1.73734 0.421925,0 0,0.30546 z m -0.788483,-0.30546 0,-1.28296 -1.101586,1.28296 1.101586,0 z"
         id="path4217"
         inkscape:connector-curvature="0" />
    </g>
    <g
       style="font-style:normal;font-weight:normal;font-size:3.90996099px;line-height:125%;font-family:Sans;letter-spacing:0px;word-spacing:0px;fill:#000000;fill-opacity:1;stroke:none;stroke-width:1px;stroke-linecap:butt;stroke-linejoin:miter;stroke-opacity:1"
       id="text4191"
       transform="translate(60.055308,64.555603)">
      <path
         d="m 77.982558,204.44482 q 0,0.19855 -0.07255,0.37992 -0.07255,0.18137 -0.198553,0.30547 -0.13746,0.13364 -0.328376,0.20619 -0.189007,0.0706 -0.439107,0.0706 -0.232917,0 -0.448653,-0.0496 -0.215735,-0.0477 -0.364649,-0.11646 l 0,-0.40283 0.02673,0 q 0.156551,0.0993 0.366559,0.16991 0.210008,0.0687 0.412379,0.0687 0.13555,0 0.261555,-0.0382 0.127913,-0.0382 0.22719,-0.13364 0.084,-0.0821 0.126004,-0.19664 0.04391,-0.11455 0.04391,-0.26538 0,-0.147 -0.05155,-0.24819 -0.04964,-0.10118 -0.139369,-0.16228 -0.09928,-0.0726 -0.242463,-0.10118 -0.141278,-0.0306 -0.316921,-0.0306 -0.168006,0 -0.324557,0.0229 -0.154642,0.0229 -0.267283,0.0458 l 0,-1.46433 1.710608,0 0,0.33411 -1.34214,0 0,0.75603 q 0.08209,-0.008 0.168006,-0.0115 0.08591,-0.004 0.148915,-0.004 0.231008,0 0.404742,0.0401 0.173733,0.0382 0.31883,0.13746 0.152732,0.10501 0.236736,0.2711 0.084,0.1661 0.084,0.4162 z"
         id="path4214"
         inkscape:connector-curvature="0" />
    </g>
    <g
       style="font-style:normal;font-weight:normal;font-size:3.90996099px;line-height:125%;font-family:Sans;letter-spacing:0px;word-spacing:0px;fill:#000000;fill-opacity:1;stroke:none;stroke-width:1px;stroke-linecap:butt;stroke-linejoin:miter;stroke-opacity:1"
       id="text4195"
       transform="translate(67.773834,64.636432)">
      <path
         d="m 56.281725,204.55555 q 0,0.36847 -0.288283,0.61284 -0.286374,0.24438 -0.721663,0.24438 -0.462017,0 -0.736936,-0.23865 -0.27301,-0.23864 -0.27301,-0.61093 0,-0.23674 0.13746,-0.42765 0.137459,-0.19283 0.387559,-0.30547 l 0,-0.0114 q -0.229099,-0.12219 -0.33983,-0.26729 -0.108823,-0.14509 -0.108823,-0.36274 0,-0.32074 0.263465,-0.53456 0.263464,-0.21383 0.670115,-0.21383 0.425743,0 0.679661,0.20428 0.253919,0.20428 0.253919,0.51929 0,0.19283 -0.120278,0.37993 -0.120277,0.18519 -0.353194,0.29019 l 0,0.0115 q 0.267282,0.11454 0.40856,0.28255 0.141278,0.16801 0.141278,0.42765 z m -0.452471,-1.38796 q 0,-0.20428 -0.15846,-0.32455 -0.156552,-0.12219 -0.400924,-0.12219 -0.240554,0 -0.395196,0.11455 -0.152733,0.11455 -0.152733,0.30928 0,0.13746 0.07637,0.23865 0.07828,0.0993 0.234827,0.17755 0.07064,0.0344 0.202371,0.0897 0.133641,0.0554 0.259646,0.0916 0.189007,-0.126 0.261555,-0.26155 0.07255,-0.13555 0.07255,-0.31311 z m 0.05918,1.42424 q 0,-0.17565 -0.07828,-0.28065 -0.07637,-0.10691 -0.301647,-0.21383 -0.08973,-0.042 -0.196644,-0.0783 -0.106913,-0.0363 -0.284465,-0.10119 -0.171824,0.0935 -0.276828,0.25392 -0.103095,0.16037 -0.103095,0.36274 0,0.25774 0.177552,0.42575 0.177552,0.168 0.450562,0.168 0.278738,0 0.444835,-0.14319 0.168006,-0.14318 0.168006,-0.39328 z"
         id="path4211"
         inkscape:connector-curvature="0" />
    </g>
    <rect
       style="color:#000000;clip-rule:nonzero;display:inline;overflow:visible;visibility:visible;opacity:1;isolation:auto;mix-blend-mode:normal;color-interpolation:sRGB;color-interpolation-filters:linearRGB;solid-color:#000000;solid-opacity:1;fill:none;fill-opacity:1;fill-rule:evenodd;stroke:#000000;stroke-width:0.17716534;stroke-linecap:round;stroke-linejoin:miter;stroke-miterlimit:4;stroke-dasharray:none;stroke-dashoffset:0;stroke-opacity:1;marker:none;color-rendering:auto;image-rendering:auto;shape-rendering:auto;text-rendering:auto;enable-background:accumulate"
       id="rect4309"
       width="17.53937"
       height="13.996063"
       x="121.32471"
       y="271.67847" />
  </g>
</svg>
