  0
SECTION
  2
BLOCKS
  0
ENDSEC
  0
SECTION
  2
ENTITIES
  0
LINE
  8
0
 10
-42.5
 20
1.00093e-014
 11
-15.4997
 21
3.65039e-015
  0
LINE
  8
0
 10
-15.4997
 20
3.65039e-015
 11
-15.4997
 21
11
  0
LINE
  8
0
 10
-15.4997
 20
11
 11
-42.5
 21
11
  0
LINE
  8
0
 10
-42.5
 20
11
 11
-42.5
 21
1.00093e-014
  0
LINE
  8
0
 10
-15.3786
 20
3.62186e-015
 11
-11.5572
 21
2.72188e-015
  0
LINE
  8
0
 10
-11.5572
 20
2.72188e-015
 11
-11.5572
 21
15
  0
LINE
  8
0
 10
-11.5572
 20
15
 11
-15.3786
 21
15
  0
LINE
  8
0
 10
-15.3786
 20
15
 11
-15.3786
 21
14.2
  0
LINE
  8
0
 10
-15.3786
 20
14.2
 11
-12.309
 21
14.2
  0
LINE
  8
0
 10
-12.309
 20
14.2
 11
-12.309
 21
0.8
  0
LINE
  8
0
 10
-12.309
 20
0.8
 11
-15.3786
 21
0.8
  0
LINE
  8
0
 10
-15.3786
 20
0.8
 11
-15.3786
 21
3.62186e-015
  0
LINE
  8
0
 10
-15.3786
 20
0.85
 11
-12.4083
 21
0.85
  0
LINE
  8
0
 10
-12.4083
 20
0.85
 11
-12.4083
 21
14.15
  0
LINE
  8
0
 10
-12.4083
 20
14.15
 11
-15.3786
 21
14.15
  0
LINE
  8
0
 10
-15.3786
 20
14.15
 11
-15.3786
 21
0.85
  0
LINE
  8
0
 10
-12.4996
 20
23
 11
12.4998
 21
23
  0
LINE
  8
0
 10
12.4998
 20
23
 11
12.4998
 21
27
  0
LINE
  8
0
 10
12.4998
 20
27
 11
-12.4996
 21
27
  0
LINE
  8
0
 10
-12.4996
 20
27
 11
-12.4996
 21
23
  0
LINE
  8
0
 10
-11.5071
 20
2.71009e-015
 11
-6.50984
 21
1.53316e-015
  0
LINE
  8
0
 10
-6.50984
 20
1.53316e-015
 11
-6.50984
 21
15
  0
LINE
  8
0
 10
-6.50984
 20
15
 11
-11.5071
 21
15
  0
LINE
  8
0
 10
-11.5071
 20
15
 11
-11.5071
 21
2.71009e-015
  0
LINE
  8
0
 10
-6.45982
 20
1.52138e-015
 11
-2.63901
 21
6.21523e-016
  0
LINE
  8
0
 10
-2.63901
 20
6.21523e-016
 11
-2.63901
 21
0.8
  0
LINE
  8
0
 10
-2.63901
 20
0.8
 11
-5.70898
 21
0.8
  0
LINE
  8
0
 10
-5.70898
 20
0.8
 11
-5.70898
 21
14.2
  0
LINE
  8
0
 10
-5.70898
 20
14.2
 11
-2.63901
 21
14.2
  0
LINE
  8
0
 10
-2.63901
 20
14.2
 11
-2.63901
 21
15
  0
LINE
  8
0
 10
-2.63901
 20
15
 11
-6.45982
 21
15
  0
LINE
  8
0
 10
-6.45982
 20
15
 11
-6.45982
 21
1.52138e-015
  0
LINE
  8
0
 10
-5.61035
 20
0.85
 11
-2.63901
 21
0.85
  0
LINE
  8
0
 10
-2.63901
 20
0.85
 11
-2.63901
 21
14.15
  0
LINE
  8
0
 10
-2.63901
 20
14.15
 11
-5.61035
 21
14.15
  0
LINE
  8
0
 10
-5.61035
 20
14.15
 11
-5.61035
 21
0.85
  0
LINE
  8
0
 10
-2.45
 20
15.25
 11
2.45
 21
15.25
  0
LINE
  8
0
 10
2.45
 20
15.25
 11
2.45
 21
16.35
  0
LINE
  8
0
 10
2.45
 20
16.35
 11
-2.45
 21
16.35
  0
LINE
  8
0
 10
-2.45
 20
16.35
 11
-2.45
 21
15.25
  0
LINE
  8
0
 10
2.6394
 20
-6.21615e-016
 11
6.46078
 21
-1.5216e-015
  0
LINE
  8
0
 10
6.46078
 20
-1.5216e-015
 11
6.46078
 21
15
  0
LINE
  8
0
 10
6.46078
 20
15
 11
2.6394
 21
15
  0
LINE
  8
0
 10
2.6394
 20
15
 11
2.6394
 21
14.2
  0
LINE
  8
0
 10
2.6394
 20
14.2
 11
5.70898
 21
14.2
  0
LINE
  8
0
 10
5.70898
 20
14.2
 11
5.70898
 21
0.8
  0
LINE
  8
0
 10
5.70898
 20
0.8
 11
2.6394
 21
0.8
  0
LINE
  8
0
 10
2.6394
 20
0.8
 11
2.6394
 21
-6.21615e-016
  0
LINE
  8
0
 10
2.6394
 20
0.85
 11
5.60962
 21
0.85
  0
LINE
  8
0
 10
5.60962
 20
0.85
 11
5.60962
 21
14.15
  0
LINE
  8
0
 10
5.60962
 20
14.15
 11
2.6394
 21
14.15
  0
LINE
  8
0
 10
2.6394
 20
14.15
 11
2.6394
 21
0.85
  0
LINE
  8
0
 10
6.51083
 20
-1.53339e-015
 11
11.5081
 21
-2.71032e-015
  0
LINE
  8
0
 10
11.5081
 20
-2.71032e-015
 11
11.5081
 21
15
  0
LINE
  8
0
 10
11.5081
 20
15
 11
6.51083
 21
15
  0
LINE
  8
0
 10
6.51083
 20
15
 11
6.51083
 21
-1.53339e-015
  0
LINE
  8
0
 10
11.5581
 20
-2.7221e-015
 11
15.3789
 21
-3.62196e-015
  0
LINE
  8
0
 10
15.3789
 20
-3.62196e-015
 11
15.3789
 21
0.8
  0
LINE
  8
0
 10
15.3789
 20
0.8
 11
12.309
 21
0.8
  0
LINE
  8
0
 10
12.309
 20
0.8
 11
12.309
 21
14.2
  0
LINE
  8
0
 10
12.309
 20
14.2
 11
15.3789
 21
14.2
  0
LINE
  8
0
 10
15.3789
 20
14.2
 11
15.3789
 21
15
  0
LINE
  8
0
 10
15.3789
 20
15
 11
11.5581
 21
15
  0
LINE
  8
0
 10
11.5581
 20
15
 11
11.5581
 21
-2.7221e-015
  0
LINE
  8
0
 10
12.4076
 20
0.85
 11
15.3789
 21
0.85
  0
LINE
  8
0
 10
15.3789
 20
0.85
 11
15.3789
 21
14.15
  0
LINE
  8
0
 10
15.3789
 20
14.15
 11
12.4076
 21
14.15
  0
LINE
  8
0
 10
12.4076
 20
14.15
 11
12.4076
 21
0.85
  0
LINE
  8
0
 10
15.4999
 20
-3.65043e-015
 11
42.5
 21
-1.00093e-014
  0
LINE
  8
0
 10
42.5
 20
-1.00093e-014
 11
42.5
 21
11
  0
LINE
  8
0
 10
42.5
 20
11
 11
15.4999
 21
11
  0
LINE
  8
0
 10
15.4999
 20
11
 11
15.4999
 21
-3.65043e-015
  0
ENDSEC
  0
SECTION
  2
OBJECTS
  0
DICTIONARY
  0
ENDSEC
  0
EOF
