<?xml version="1.0" encoding="UTF-8" standalone="no"?>
<!-- Created with Inkscape (http://www.inkscape.org/) -->

<svg
   xmlns:dc="http://purl.org/dc/elements/1.1/"
   xmlns:cc="http://creativecommons.org/ns#"
   xmlns:rdf="http://www.w3.org/1999/02/22-rdf-syntax-ns#"
   xmlns:svg="http://www.w3.org/2000/svg"
   xmlns="http://www.w3.org/2000/svg"
   xmlns:sodipodi="http://sodipodi.sourceforge.net/DTD/sodipodi-0.dtd"
   xmlns:inkscape="http://www.inkscape.org/namespaces/inkscape"
   width="25.189392mm"
   height="23.587053mm"
   viewBox="0 0 89.253751 83.576172"
   id="svg2"
   version="1.1"
   inkscape:version="0.91 r13725"
   sodipodi:docname="Laser_Acrylic_Copper_Parts_V4.svg">
  <defs
     id="defs4" />
  <sodipodi:namedview
     id="base"
     pagecolor="#ffffff"
     bordercolor="#666666"
     borderopacity="1.0"
     inkscape:pageopacity="0.0"
     inkscape:pageshadow="2"
     inkscape:zoom="7.9999999"
     inkscape:cx="66.350011"
     inkscape:cy="22.293377"
     inkscape:document-units="mm"
     inkscape:current-layer="layer4"
     showgrid="false"
     inkscape:snap-midpoints="true"
     inkscape:object-nodes="true"
     inkscape:window-width="1600"
     inkscape:window-height="1151"
     inkscape:window-x="-4"
     inkscape:window-y="-4"
     inkscape:window-maximized="1"
     showguides="true"
     inkscape:guide-bbox="true"
     inkscape:snap-center="true"
     inkscape:object-paths="true"
     inkscape:snap-smooth-nodes="false"
     inkscape:snap-intersection-paths="true"
     inkscape:snap-bbox="false"
     inkscape:bbox-nodes="true"
     fit-margin-top="0.3"
     fit-margin-bottom="0.3"
     fit-margin-left="0.3"
     fit-margin-right="0.3">
    <sodipodi:guide
       position="265.51206,91.393231"
       orientation="1,0"
       id="guide5439" />
    <sodipodi:guide
       position="336.37827,156.94498"
       orientation="0,1"
       id="guide5482" />
    <sodipodi:guide
       position="199.9603,162.25944"
       orientation="1,0"
       id="guide5484" />
    <sodipodi:guide
       position="331.06381,162.25944"
       orientation="1,0"
       id="guide5486" />
    <sodipodi:guide
       position="59.351421,18.169951"
       orientation="0,1"
       id="guide5492" />
    <sodipodi:guide
       position="265.8843,341.68625"
       orientation="0,1"
       id="guide5500" />
    <sodipodi:guide
       position="331.06381,156.94498"
       orientation="-0.70710678,0.70710678"
       id="guide4259" />
    <sodipodi:guide
       position="199.9603,156.94498"
       orientation="0.70710678,0.70710678"
       id="guide4261" />
    <sodipodi:guide
       position="127.75221,67.388721"
       orientation="0,1"
       id="guide4290"
       inkscape:label=""
       inkscape:color="rgb(0,0,255)" />
    <sodipodi:guide
       position="117.47662,6.532391"
       orientation="0,1"
       id="guide4292" />
    <sodipodi:guide
       position="80.611171,76.867181"
       orientation="1,0"
       id="guide4315" />
    <sodipodi:guide
       position="91.241091,76.867181"
       orientation="1,0"
       id="guide4317"
       inkscape:label=""
       inkscape:color="rgb(0,0,255)" />
    <sodipodi:guide
       position="45.178104,94.620011"
       orientation="1,0"
       id="guide4321"
       inkscape:label=""
       inkscape:color="rgb(0,0,255)" />
    <sodipodi:guide
       position="45.178104,65.406931"
       orientation="0,1"
       id="guide4325" />
    <sodipodi:guide
       position="80.611171,82.182201"
       orientation="0,1"
       id="guide4331"
       inkscape:label=""
       inkscape:color="rgb(0,0,255)" />
    <sodipodi:guide
       position="36.320171,57.449241"
       orientation="1,0"
       id="guide6092" />
    <sodipodi:guide
       position="20.66517,42.195071"
       orientation="0,1"
       id="guide6094" />
  </sodipodi:namedview>
  <metadata
     id="metadata7">
    <rdf:RDF>
      <cc:Work
         rdf:about="">
        <dc:format>image/svg+xml</dc:format>
        <dc:type
           rdf:resource="http://purl.org/dc/dcmitype/StillImage" />
        <dc:title></dc:title>
      </cc:Work>
    </rdf:RDF>
  </metadata>
  <g
     inkscape:groupmode="layer"
     id="layer4"
     inkscape:label="Acrylic 3mm DC Clip"
     style="display:inline"
     transform="translate(-86.009915,-527.87891)">
    <path
       style="fill:none;fill-rule:evenodd;stroke:#ff0000;stroke-width:0.35433072;stroke-linecap:butt;stroke-linejoin:miter;stroke-miterlimit:4;stroke-dasharray:none;stroke-opacity:1"
       d="M 80.611328 1.3945312 L 80.611328 6 C 81.002968 5.99982 81.320494 6.3153912 81.320312 6.7070312 C 81.320493 7.0986712 81.002968 7.4181488 80.611328 7.4179688 C 80.219688 7.4181488 79.902164 7.0986712 79.902344 6.7070312 L 36.320312 6.7070312 C 16.946572 6.7062912 1.2405704 22.41337 1.2402344 41.787109 C 1.2394994 61.16161 16.945814 76.865973 36.320312 76.865234 L 36.320312 76.955078 L 79.902344 76.865234 C 79.902164 76.473594 80.219688 76.15607 80.611328 76.15625 C 81.002968 76.15607 81.320494 76.473593 81.320312 76.865234 C 81.320483 77.256874 81.002958 77.574399 80.611328 77.574219 L 80.611328 82.179688 L 88.013672 77.205078 L 88.013672 72.646484 L 80.611328 69.65625 L 45.177734 66.822266 C 44.786104 66.822446 44.46857 66.504911 44.46875 66.113281 C 44.46857 65.721641 44.786094 65.404117 45.177734 65.404297 L 59.351562 65.404297 L 59.351562 57.730469 L 36.320312 57.734375 L 36.320312 55.023438 A 13.641733 13.641733 0 0 1 22.677734 41.380859 A 13.641733 13.641733 0 0 1 36.320312 27.740234 L 36.320312 25.84375 L 59.351562 25.84375 L 59.351562 18.169922 L 45.177734 18.169922 C 44.786094 18.170102 44.46857 17.850624 44.46875 17.458984 C 44.46857 17.067354 44.786104 16.751773 45.177734 16.751953 L 80.611328 13.917969 L 88.013672 10.925781 L 88.013672 6.3691406 L 80.611328 1.3945312 z "
       transform="translate(86.009915,527.87891)"
       id="path4336" />
  </g>
  <g
     inkscape:groupmode="layer"
     id="layer2"
     inkscape:label="Acrylic 5mm BasePlate"
     style="display:none"
     transform="translate(-86.009915,-527.87891)">
    <path
       style="color:#000000;clip-rule:nonzero;display:inline;overflow:visible;visibility:visible;opacity:1;isolation:auto;mix-blend-mode:normal;color-interpolation:sRGB;color-interpolation-filters:linearRGB;solid-color:#000000;solid-opacity:1;fill:none;fill-opacity:1;fill-rule:evenodd;stroke:#0000ff;stroke-width:0.35433072;stroke-linecap:round;stroke-linejoin:miter;stroke-miterlimit:4;stroke-dasharray:none;stroke-dashoffset:0;stroke-opacity:1;marker:none;color-rendering:auto;image-rendering:auto;shape-rendering:auto;text-rendering:auto;enable-background:accumulate"
       d="m 352.30469,109.99805 c -88.01156,4.7e-4 -159.35891,71.34781 -159.35938,159.35937 l 0,413.78516 0,140.04968 c 0,9.81496 7.90184,17.7168 17.7168,17.7168 l 283.46484,0 c 9.81496,0 17.7168,-7.90184 17.7168,-17.7168 l 0,-140.04968 c 0,-0.81066 -0.0733,-1.60164 -0.17773,-2.38281 l 0,-411.40235 C 511.66555,181.3451 440.31701,109.99744 352.30469,109.99805 Z"
       id="rect5441"
       inkscape:connector-curvature="0"
       sodipodi:nodetypes="sscssssscss" />
    <path
       style="display:inline;opacity:1;fill:none;fill-rule:evenodd;stroke:#000000;stroke-width:0.70866144;stroke-linecap:butt;stroke-linejoin:miter;stroke-miterlimit:4;stroke-dasharray:none;stroke-opacity:1"
       d="M 351.89422,128.03646 A 141.73228,141.73228 0 0 0 210.1618,269.76889 141.73228,141.73228 0 0 0 351.89422,411.50131 141.73228,141.73228 0 0 0 493.62664,269.76889 141.73228,141.73228 0 0 0 351.89422,128.03646 Z m 0,70.86719 a 70.866142,70.866142 0 0 1 70.86719,70.86524 70.866142,70.866142 0 0 1 -70.86719,70.86718 70.866142,70.866142 0 0 1 -70.86523,-70.86718 70.866142,70.866142 0 0 1 70.86523,-70.86524 z"
       id="path5357-2"
       inkscape:connector-curvature="0" />
    <g
       id="g4253">
      <circle
         r="3.8976378"
         cy="454.51013"
         cx="417.07373"
         id="path5480"
         style="fill:none;fill-rule:evenodd;stroke:#ff0000;stroke-width:0.35433072;stroke-linecap:butt;stroke-linejoin:miter;stroke-miterlimit:4;stroke-dasharray:none;stroke-opacity:1" />
      <circle
         style="fill:none;fill-rule:evenodd;stroke:#ff0000;stroke-width:0.35433072;stroke-linecap:butt;stroke-linejoin:miter;stroke-miterlimit:4;stroke-dasharray:none;stroke-opacity:1"
         id="circle5488"
         cx="285.97021"
         cy="454.51013"
         r="3.8976378" />
      <circle
         r="3.8976378"
         cy="585.61169"
         cx="285.97021"
         id="circle5490"
         style="fill:none;fill-rule:evenodd;stroke:#ff0000;stroke-width:0.35433072;stroke-linecap:butt;stroke-linejoin:miter;stroke-miterlimit:4;stroke-dasharray:none;stroke-opacity:1" />
      <circle
         style="fill:none;fill-rule:evenodd;stroke:#ff0000;stroke-width:0.35433072;stroke-linecap:butt;stroke-linejoin:miter;stroke-miterlimit:4;stroke-dasharray:none;stroke-opacity:1"
         id="circle5494"
         cx="417.07373"
         cy="585.61169"
         r="3.8976378" />
    </g>
    <path
       style="fill:none;fill-rule:evenodd;stroke:#ff0000;stroke-width:0.35433072;stroke-linecap:butt;stroke-linejoin:miter;stroke-miterlimit:4;stroke-dasharray:none;stroke-opacity:1"
       d="m 223.36523,-265.19531 a 7.0866141,7.0866141 0 0 0 -6.93554,5.63672 l -15.77539,0 c -0.9815,0 -1.77149,0.7104 -1.77149,1.59375 0,0.88334 0.78999,1.59375 1.77149,1.59375 l 15.84765,0 a 7.0866141,7.0866141 0 0 0 6.86328,5.34961 7.0866141,7.0866141 0 0 0 6.86133,-5.34961 l 16.13672,0 c 0.9815,0 1.77149,-0.71041 1.77149,-1.59375 0,-0.88335 -0.78999,-1.59375 -1.77149,-1.59375 l -16.07031,0 a 7.0866141,7.0866141 0 0 0 -6.92774,-5.63672 z"
       transform="translate(86.009838,527.87793)"
       id="path5496"
       inkscape:connector-curvature="0" />
    <path
       style="fill:none;fill-rule:evenodd;stroke:#ff0000;stroke-width:0.35433072;stroke-linecap:butt;stroke-linejoin:miter;stroke-miterlimit:4;stroke-dasharray:none;stroke-opacity:1"
       d="m 265.88477,-324.9668 c -0.88335,0 -1.59571,0.78999 -1.59571,1.77149 l 0,15.67187 a 7.0866141,7.0866141 0 0 0 -5.49218,6.89453 7.0866141,7.0866141 0 0 0 5.49218,6.89649 l 0,16.24609 c 0,0.9815 0.71236,1.77149 1.59571,1.77149 0.88334,0 1.59375,-0.78999 1.59375,-1.77149 l 0,-16.24609 a 7.0866141,7.0866141 0 0 0 5.49218,-6.89649 7.0866141,7.0866141 0 0 0 -5.49218,-6.89843 l 0,-15.66797 c 0,-0.9815 -0.71041,-1.77149 -1.59375,-1.77149 z"
       transform="translate(86.009838,527.87793)"
       id="circle5498"
       inkscape:connector-curvature="0" />
    <circle
       style="display:inline;opacity:1;fill:none;fill-rule:evenodd;stroke:#000000;stroke-width:0.74409443;stroke-linecap:butt;stroke-linejoin:miter;stroke-miterlimit:4;stroke-dasharray:none;stroke-opacity:1"
       id="path5502"
       cx="351.89423"
       cy="227.24922"
       r="22.305119" />
    <circle
       r="22.305119"
       cy="312.28857"
       cx="351.89423"
       id="circle5505"
       style="display:inline;opacity:1;fill:none;fill-rule:evenodd;stroke:#000000;stroke-width:0.74409443;stroke-linecap:butt;stroke-linejoin:miter;stroke-miterlimit:4;stroke-dasharray:none;stroke-opacity:1" />
    <circle
       style="display:inline;opacity:1;fill:none;fill-rule:evenodd;stroke:#000000;stroke-width:0.74409443;stroke-linecap:butt;stroke-linejoin:miter;stroke-miterlimit:4;stroke-dasharray:none;stroke-opacity:1"
       id="circle5507"
       cx="394.41391"
       cy="269.76889"
       r="22.305119" />
    <circle
       r="22.305119"
       cy="269.76889"
       cx="309.37454"
       id="circle5509"
       style="display:inline;opacity:1;fill:none;fill-rule:evenodd;stroke:#000000;stroke-width:0.74409443;stroke-linecap:butt;stroke-linejoin:miter;stroke-miterlimit:4;stroke-dasharray:none;stroke-opacity:1" />
    <path
       style="fill:none;fill-rule:evenodd;stroke:#ff0000;stroke-width:0.35433072;stroke-linecap:butt;stroke-linejoin:miter;stroke-miterlimit:4;stroke-dasharray:none;stroke-opacity:1"
       d="m 308.4043,-265.19531 a 7.0866141,7.0866141 0 0 0 -6.93555,5.63672 l -16.0625,0 c -0.9815,0 -1.77148,0.7104 -1.77148,1.59375 0,0.88334 0.78998,1.59375 1.77148,1.59375 l 16.13477,0 a 7.0866141,7.0866141 0 0 0 6.86328,5.34961 7.0866141,7.0866141 0 0 0 6.86132,-5.34961 l 15.84961,0 c 0.9815,0 1.77149,-0.71041 1.77149,-1.59375 0,-0.88335 -0.78999,-1.59375 -1.77149,-1.59375 l -15.7832,0 a 7.0866141,7.0866141 0 0 0 -6.92773,-5.63672 z"
       transform="translate(86.009838,527.87793)"
       id="circle5511"
       inkscape:connector-curvature="0" />
    <path
       style="fill:none;fill-rule:evenodd;stroke:#ff0000;stroke-width:0.35433072;stroke-linecap:butt;stroke-linejoin:miter;stroke-miterlimit:4;stroke-dasharray:none;stroke-opacity:1"
       d="m 265.88477,-240.21484 c -0.88335,0 -1.59571,0.78998 -1.59571,1.77148 l 0,15.95898 a 7.0866141,7.0866141 0 0 0 -5.49218,6.89454 7.0866141,7.0866141 0 0 0 5.49218,6.89843 l 0,15.95703 c 0,0.9815 0.71236,1.77149 1.59571,1.77149 0.88334,0 1.59375,-0.78999 1.59375,-1.77149 l 0,-15.95898 a 7.0866141,7.0866141 0 0 0 5.49218,-6.89648 7.0866141,7.0866141 0 0 0 -5.49218,-6.89844 l 0,-15.95508 c 0,-0.9815 -0.71041,-1.77148 -1.59375,-1.77148 z"
       transform="translate(86.009838,527.87793)"
       id="circle5513"
       inkscape:connector-curvature="0" />
    <rect
       ry="3.5433068"
       rx="3.5433073"
       y="-564.17609"
       x="307.40781"
       height="88.228348"
       width="88.228348"
       id="rect4251"
       style="color:#000000;clip-rule:nonzero;display:inline;overflow:visible;visibility:visible;opacity:1;isolation:auto;mix-blend-mode:normal;color-interpolation:sRGB;color-interpolation-filters:linearRGB;solid-color:#000000;solid-opacity:1;fill:none;fill-opacity:1;fill-rule:evenodd;stroke:#ff0000;stroke-width:0.35433072;stroke-linecap:round;stroke-linejoin:miter;stroke-miterlimit:4;stroke-dasharray:none;stroke-dashoffset:0;stroke-opacity:1;marker:none;color-rendering:auto;image-rendering:auto;shape-rendering:auto;text-rendering:auto;enable-background:accumulate"
       transform="scale(1,-1)" />
    <rect
       style="color:#000000;clip-rule:nonzero;display:inline;overflow:visible;visibility:visible;opacity:1;isolation:auto;mix-blend-mode:normal;color-interpolation:sRGB;color-interpolation-filters:linearRGB;solid-color:#000000;solid-opacity:1;fill:none;fill-opacity:1;fill-rule:evenodd;stroke:#ff0000;stroke-width:0.35433072;stroke-linecap:round;stroke-linejoin:miter;stroke-miterlimit:4;stroke-dasharray:none;stroke-dashoffset:0;stroke-opacity:1;marker:none;color-rendering:auto;image-rendering:auto;shape-rendering:auto;text-rendering:auto;enable-background:accumulate"
       id="rect4249"
       width="24.615597"
       height="30.328142"
       x="218.20164"
       y="560.0993"
       rx="3.5433071"
       ry="3.5433071" />
    <rect
       style="color:#000000;clip-rule:nonzero;display:inline;overflow:visible;visibility:visible;opacity:1;isolation:auto;mix-blend-mode:normal;color-interpolation:sRGB;color-interpolation-filters:linearRGB;solid-color:#000000;solid-opacity:1;fill:none;fill-opacity:1;fill-rule:evenodd;stroke:#ff0000;stroke-width:0.35433072;stroke-linecap:round;stroke-linejoin:miter;stroke-miterlimit:4;stroke-dasharray:none;stroke-dashoffset:0;stroke-opacity:1;marker:none;color-rendering:auto;image-rendering:auto;shape-rendering:auto;text-rendering:auto;enable-background:accumulate"
       id="rect4266"
       width="10.275591"
       height="11.637281"
       x="203.48654"
       y="534.41089" />
    <rect
       style="color:#000000;clip-rule:nonzero;display:inline;overflow:visible;visibility:visible;opacity:1;isolation:auto;mix-blend-mode:normal;color-interpolation:sRGB;color-interpolation-filters:linearRGB;solid-color:#000000;solid-opacity:1;fill:none;fill-opacity:1;fill-rule:evenodd;stroke:#ff0000;stroke-width:0.35433072;stroke-linecap:round;stroke-linejoin:miter;stroke-miterlimit:4;stroke-dasharray:none;stroke-dashoffset:0;stroke-opacity:1;marker:none;color-rendering:auto;image-rendering:auto;shape-rendering:auto;text-rendering:auto;enable-background:accumulate"
       id="rect4266-7"
       width="10.275591"
       height="11.637579"
       x="203.48654"
       y="593.28516" />
  </g>
  <g
     inkscape:groupmode="layer"
     id="layer3"
     inkscape:label="Komponents"
     style="display:none;opacity:0.43000004"
     transform="translate(-86.009915,-527.87891)">
    <path
       style="fill:#808080;fill-rule:evenodd;stroke:none;stroke-width:1px;stroke-linecap:butt;stroke-linejoin:miter;stroke-opacity:1"
       d="M 351.89422,128.03646 A 141.73228,141.73228 0 0 0 210.1618,269.76889 141.73228,141.73228 0 0 0 351.89422,411.50131 141.73228,141.73228 0 0 0 493.62664,269.76889 141.73228,141.73228 0 0 0 351.89422,128.03646 Z m 0,70.86719 a 70.866142,70.866142 0 0 1 70.86719,70.86524 70.866142,70.866142 0 0 1 -70.86719,70.86718 70.866142,70.866142 0 0 1 -70.86523,-70.86718 70.866142,70.866142 0 0 1 70.86523,-70.86524 z"
       id="path5357"
       inkscape:connector-curvature="0" />
    <g
       id="g5415"
       transform="translate(473.98585,64.080452)">
      <path
         id="rect5360"
         d="m -199.53125,378.91406 0,154.13282 154.134766,0 0,-154.13282 -154.134766,0 z m 11.51563,6.20117 a 5.3149605,5.3149605 0 0 1 5.3164,5.31446 5.3149605,5.3149605 0 0 1 -5.3164,5.31445 5.3149605,5.3149605 0 0 1 -5.31446,-5.31445 5.3149605,5.3149605 0 0 1 5.31446,-5.31446 z m 131.103511,0 a 5.3149605,5.3149605 0 0 1 5.314453,5.31446 5.3149605,5.3149605 0 0 1 -5.314453,5.31445 5.3149605,5.3149605 0 0 1 -5.316407,-5.31445 5.3149605,5.3149605 0 0 1 5.316407,-5.31446 z M -188.01562,516.2168 a 5.3149605,5.3149605 0 0 1 5.3164,5.31445 5.3149605,5.3149605 0 0 1 -5.3164,5.31641 5.3149605,5.3149605 0 0 1 -5.31446,-5.31641 5.3149605,5.3149605 0 0 1 5.31446,-5.31445 z m 131.103511,0 a 5.3149605,5.3149605 0 0 1 5.314453,5.31445 5.3149605,5.3149605 0 0 1 -5.314453,5.31641 5.3149605,5.3149605 0 0 1 -5.316407,-5.31641 5.3149605,5.3149605 0 0 1 5.316407,-5.31445 z"
         style="color:#000000;clip-rule:nonzero;display:inline;overflow:visible;visibility:visible;opacity:1;isolation:auto;mix-blend-mode:normal;color-interpolation:sRGB;color-interpolation-filters:linearRGB;solid-color:#000000;solid-opacity:1;fill:#800000;fill-opacity:1;fill-rule:evenodd;stroke:none;stroke-width:2.29999995;stroke-linecap:round;stroke-linejoin:miter;stroke-miterlimit:4;stroke-dasharray:none;stroke-dashoffset:0;stroke-opacity:1;marker:none;color-rendering:auto;image-rendering:auto;shape-rendering:auto;text-rendering:auto;enable-background:accumulate"
         inkscape:connector-curvature="0" />
      <text
         sodipodi:linespacing="125%"
         id="text5363"
         y="466.8866"
         x="-170.71579"
         style="font-style:normal;font-weight:normal;font-size:30px;line-height:125%;font-family:Sans;letter-spacing:0px;word-spacing:0px;fill:#000000;fill-opacity:1;stroke:none;stroke-width:1px;stroke-linecap:butt;stroke-linejoin:miter;stroke-opacity:1"
         xml:space="preserve"><tspan
           y="466.8866"
           x="-170.71579"
           id="tspan5365"
           sodipodi:role="line">L298N</tspan></text>
    </g>
    <g
       id="g5428"
       transform="translate(222.21125,20.066125)">
      <rect
         transform="matrix(0,1,-1,0,0,0)"
         y="-280.68494"
         x="594.48859"
         height="301.18109"
         width="201.96851"
         id="rect5420"
         style="color:#000000;clip-rule:nonzero;display:inline;overflow:visible;visibility:visible;opacity:1;isolation:auto;mix-blend-mode:normal;color-interpolation:sRGB;color-interpolation-filters:linearRGB;solid-color:#000000;solid-opacity:1;fill:#c8b7b7;fill-opacity:1;fill-rule:evenodd;stroke:none;stroke-width:2.29999995;stroke-linecap:round;stroke-linejoin:miter;stroke-miterlimit:4;stroke-dasharray:none;stroke-dashoffset:0;stroke-opacity:1;marker:none;color-rendering:auto;image-rendering:auto;shape-rendering:auto;text-rendering:auto;enable-background:accumulate" />
      <text
         sodipodi:linespacing="125%"
         id="text5422"
         y="687.47479"
         x="42.738434"
         style="font-style:normal;font-weight:normal;font-size:30px;line-height:125%;font-family:Sans;letter-spacing:0px;word-spacing:0px;fill:#000000;fill-opacity:1;stroke:none;stroke-width:1px;stroke-linecap:butt;stroke-linejoin:miter;stroke-opacity:1"
         xml:space="preserve"><tspan
           y="687.47479"
           x="42.738434"
           id="tspan5424"
           sodipodi:role="line">Mini</tspan><tspan
           id="tspan5426"
           y="724.97479"
           x="42.738434"
           sodipodi:role="line">Breadboard</tspan></text>
    </g>
    <g
       id="g4236">
      <rect
         ry="0.35433075"
         rx="0.35433072"
         y="553.72192"
         x="191.79362"
         height="31.889763"
         width="51.023621"
         id="rect4220"
         style="color:#000000;clip-rule:nonzero;display:inline;overflow:visible;visibility:visible;opacity:1;isolation:auto;mix-blend-mode:normal;color-interpolation:sRGB;color-interpolation-filters:linearRGB;solid-color:#000000;solid-opacity:1;fill:#666666;fill-opacity:1;fill-rule:evenodd;stroke:none;stroke-width:0.35433072;stroke-linecap:round;stroke-linejoin:miter;stroke-miterlimit:4;stroke-dasharray:none;stroke-dashoffset:0;stroke-opacity:1;marker:none;color-rendering:auto;image-rendering:auto;shape-rendering:auto;text-rendering:auto;enable-background:accumulate" />
      <rect
         y="585.61169"
         x="225.10072"
         height="1.7716535"
         width="8.8582678"
         id="rect4222"
         style="color:#000000;clip-rule:nonzero;display:inline;overflow:visible;visibility:visible;opacity:1;isolation:auto;mix-blend-mode:normal;color-interpolation:sRGB;color-interpolation-filters:linearRGB;solid-color:#000000;solid-opacity:1;fill:#cccccc;fill-opacity:1;fill-rule:evenodd;stroke:none;stroke-width:0.35433072;stroke-linecap:round;stroke-linejoin:miter;stroke-miterlimit:4;stroke-dasharray:none;stroke-dashoffset:0;stroke-opacity:1;marker:none;color-rendering:auto;image-rendering:auto;shape-rendering:auto;text-rendering:auto;enable-background:accumulate" />
      <rect
         transform="matrix(0,1,-1,0,0,0)"
         style="color:#000000;clip-rule:nonzero;display:inline;overflow:visible;visibility:visible;opacity:1;isolation:auto;mix-blend-mode:normal;color-interpolation:sRGB;color-interpolation-filters:linearRGB;solid-color:#000000;solid-opacity:1;fill:#cccccc;fill-opacity:1;fill-rule:evenodd;stroke:none;stroke-width:0.35433072;stroke-linecap:round;stroke-linejoin:miter;stroke-miterlimit:4;stroke-dasharray:none;stroke-dashoffset:0;stroke-opacity:1;marker:none;color-rendering:auto;image-rendering:auto;shape-rendering:auto;text-rendering:auto;enable-background:accumulate"
         id="rect4230"
         width="8.8582678"
         height="1.7716535"
         x="565.23767"
         y="-241.04559" />
      <rect
         transform="matrix(0,1,-1,0,0,0)"
         style="color:#000000;clip-rule:nonzero;display:inline;overflow:visible;visibility:visible;opacity:1;isolation:auto;mix-blend-mode:normal;color-interpolation:sRGB;color-interpolation-filters:linearRGB;solid-color:#000000;solid-opacity:1;fill:#cccccc;fill-opacity:1;fill-rule:evenodd;stroke:none;stroke-width:0.35433072;stroke-linecap:round;stroke-linejoin:miter;stroke-miterlimit:4;stroke-dasharray:none;stroke-dashoffset:0;stroke-opacity:1;marker:none;color-rendering:auto;image-rendering:auto;shape-rendering:auto;text-rendering:auto;enable-background:accumulate"
         id="rect4232"
         width="8.8582678"
         height="1.7716535"
         x="565.23767"
         y="-221.5574" />
      <rect
         ry="0.35433072"
         rx="0.35433072"
         y="553.72192"
         x="191.79362"
         height="31.88978"
         width="11.692913"
         id="rect4234"
         style="color:#000000;clip-rule:nonzero;display:inline;overflow:visible;visibility:visible;opacity:1;isolation:auto;mix-blend-mode:normal;color-interpolation:sRGB;color-interpolation-filters:linearRGB;solid-color:#000000;solid-opacity:1;fill:#000000;fill-opacity:1;fill-rule:evenodd;stroke:none;stroke-width:0.35433072;stroke-linecap:round;stroke-linejoin:miter;stroke-miterlimit:4;stroke-dasharray:none;stroke-dashoffset:0;stroke-opacity:1;marker:none;color-rendering:auto;image-rendering:auto;shape-rendering:auto;text-rendering:auto;enable-background:accumulate" />
    </g>
    <rect
       style="color:#000000;clip-rule:nonzero;display:inline;overflow:visible;visibility:visible;opacity:0.48600003;isolation:auto;mix-blend-mode:normal;color-interpolation:sRGB;color-interpolation-filters:linearRGB;solid-color:#000000;solid-opacity:1;fill:#ff6600;fill-opacity:1;fill-rule:evenodd;stroke:none;stroke-width:0.35433072;stroke-linecap:round;stroke-linejoin:miter;stroke-miterlimit:4;stroke-dasharray:none;stroke-dashoffset:0;stroke-opacity:1;marker:none;color-rendering:auto;image-rendering:auto;shape-rendering:auto;text-rendering:auto;enable-background:accumulate"
       id="rect4263"
       width="10.275591"
       height="70.511818"
       x="203.48654"
       y="534.41089" />
    <rect
       style="color:#000000;clip-rule:nonzero;display:inline;overflow:visible;visibility:visible;opacity:1;isolation:auto;mix-blend-mode:normal;color-interpolation:sRGB;color-interpolation-filters:linearRGB;solid-color:#000000;solid-opacity:1;fill:#008080;fill-opacity:1;fill-rule:evenodd;stroke:none;stroke-width:0.35433072;stroke-linecap:round;stroke-linejoin:miter;stroke-miterlimit:4;stroke-dasharray:none;stroke-dashoffset:0;stroke-opacity:1;marker:none;color-rendering:auto;image-rendering:auto;shape-rendering:auto;text-rendering:auto;enable-background:accumulate"
       id="rect4294"
       width="21.259842"
       height="70.511826"
       x="145.36089"
       y="534.41125" />
  </g>
  <g
     inkscape:groupmode="layer"
     id="layer6"
     inkscape:label="Acrylic 1mm Protector"
     style="display:none"
     transform="translate(-86.009915,-527.87891)">
    <path
       style="display:inline;fill:none;fill-rule:evenodd;stroke:#ff0000;stroke-width:0.17716533;stroke-linecap:butt;stroke-linejoin:miter;stroke-miterlimit:4;stroke-dasharray:none;stroke-opacity:1"
       d="M 350.84279,126.37168 A 143.4006,143.4006 0 0 0 223.62013,205.66269 143.4006,143.4006 0 0 0 287.7881,398.0416 143.4006,143.4006 0 0 0 480.16701,333.87558 143.4006,143.4006 0 0 0 416.00099,141.49472 143.4006,143.4006 0 0 0 350.84279,126.37168 Z m 0.54492,74.4082 a 68.991539,68.991539 0 0 1 31.34961,7.27539 68.991539,68.991539 0 0 1 30.87109,92.55664 68.991539,68.991539 0 0 1 -92.55664,30.87109 68.991539,68.991539 0 0 1 -30.87109,-92.55664 68.991539,68.991539 0 0 1 61.20703,-38.14648 z"
       id="circle4220"
       inkscape:connector-curvature="0" />
  </g>
  <g
     inkscape:groupmode="layer"
     id="layer5"
     inkscape:label="Acrylic 1mm SensorCarrier"
     style="display:none"
     transform="translate(-86.009915,-527.87891)">
    <circle
       style="display:inline;fill:none;fill-rule:evenodd;stroke:#ff0000;stroke-width:0.17716534;stroke-linecap:butt;stroke-linejoin:miter;stroke-miterlimit:4;stroke-dasharray:none;stroke-opacity:1"
       id="path4136"
       cx="83.999413"
       cy="-435.37213"
       transform="matrix(-0.44704375,0.89451209,-0.89451209,-0.44704375,-3.8926777e-6,3.8226701e-6)"
       r="67.2192" />
    <g
       style="display:inline"
       id="g4196"
       transform="matrix(0.70710678,-0.70710678,0.70710678,0.70710678,62.849541,164.70546)">
      <circle
         r="22.346855"
         cy="248.97986"
         cx="100.39772"
         id="path4140"
         style="fill:none;fill-rule:evenodd;stroke:#000000;stroke-width:0.99999994px;stroke-linecap:butt;stroke-linejoin:miter;stroke-opacity:1" />
      <circle
         style="fill:none;fill-rule:evenodd;stroke:#000000;stroke-width:0.99999994px;stroke-linecap:butt;stroke-linejoin:miter;stroke-opacity:1"
         id="circle4142"
         cx="159.26465"
         cy="248.97986"
         r="22.346855" />
      <circle
         r="22.346855"
         cy="308.37314"
         cx="100.39772"
         id="circle4144"
         style="fill:none;fill-rule:evenodd;stroke:#000000;stroke-width:0.99999994px;stroke-linecap:butt;stroke-linejoin:miter;stroke-opacity:1" />
      <circle
         style="fill:none;fill-rule:evenodd;stroke:#000000;stroke-width:0.99999994px;stroke-linecap:butt;stroke-linejoin:miter;stroke-opacity:1"
         id="circle4146"
         cx="159.79105"
         cy="308.37314"
         r="22.346855" />
    </g>
    <rect
       style="color:#000000;clip-rule:nonzero;display:inline;overflow:visible;visibility:visible;opacity:1;isolation:auto;mix-blend-mode:normal;color-interpolation:sRGB;color-interpolation-filters:linearRGB;solid-color:#000000;solid-opacity:1;fill:none;fill-opacity:1;fill-rule:evenodd;stroke:#000000;stroke-width:0.17716534;stroke-linecap:round;stroke-linejoin:miter;stroke-miterlimit:4;stroke-dasharray:none;stroke-dashoffset:0;stroke-opacity:1;marker:none;color-rendering:auto;image-rendering:auto;shape-rendering:auto;text-rendering:auto;enable-background:accumulate"
       id="rect4309"
       width="17.53937"
       height="13.996063"
       x="343.12454"
       y="262.77084" />
    <circle
       style="display:inline;fill:#000000;fill-rule:evenodd;stroke:none;stroke-width:0.99921262;stroke-linecap:butt;stroke-linejoin:miter;stroke-miterlimit:4;stroke-dasharray:none;stroke-opacity:1"
       id="path4186"
       cx="344.04681"
       cy="275.69598"
       r="0.55672646" />
    <g
       style="font-style:normal;font-weight:normal;font-size:3.90996099px;line-height:125%;font-family:Sans;letter-spacing:0px;word-spacing:0px;display:inline;fill:#000000;fill-opacity:1;stroke:none;stroke-width:1px;stroke-linecap:butt;stroke-linejoin:miter;stroke-opacity:1"
       id="text4180"
       transform="translate(289.57365,53.262862)">
      <path
         d="m 56.146762,228.24043 -1.538783,0 0,-0.29019 0.59184,0 0,-1.90534 -0.59184,0 0,-0.25965 q 0.120277,0 0.257737,-0.0191 0.137459,-0.021 0.208098,-0.0592 0.08782,-0.0477 0.13746,-0.12028 0.05155,-0.0745 0.05918,-0.19855 l 0.29592,0 0,2.56209 0.580384,0 0,0.29019 z"
         id="path4220"
         inkscape:connector-curvature="0" />
    </g>
    <g
       style="font-style:normal;font-weight:normal;font-size:3.90996099px;line-height:125%;font-family:Sans;letter-spacing:0px;word-spacing:0px;display:inline;fill:#000000;fill-opacity:1;stroke:none;stroke-width:1px;stroke-linecap:butt;stroke-linejoin:miter;stroke-opacity:1"
       id="text4187"
       transform="translate(281.45489,53.262862)">
      <path
         d="m 78.070379,227.44049 -0.421925,0 0,0.79994 -0.366558,0 0,-0.79994 -1.361232,0 0,-0.4391 1.376505,-1.6037 0.351285,0 0,1.73734 0.421925,0 0,0.30546 z m -0.788483,-0.30546 0,-1.28296 -1.101586,1.28296 1.101586,0 z"
         id="path4217"
         inkscape:connector-curvature="0" />
    </g>
    <g
       style="font-style:normal;font-weight:normal;font-size:3.90996099px;line-height:125%;font-family:Sans;letter-spacing:0px;word-spacing:0px;display:inline;fill:#000000;fill-opacity:1;stroke:none;stroke-width:1px;stroke-linecap:butt;stroke-linejoin:miter;stroke-opacity:1"
       id="text4191"
       transform="translate(281.85513,55.64798)">
      <path
         d="m 77.982558,204.44482 q 0,0.19855 -0.07255,0.37992 -0.07255,0.18137 -0.198553,0.30547 -0.13746,0.13364 -0.328376,0.20619 -0.189007,0.0706 -0.439107,0.0706 -0.232917,0 -0.448653,-0.0496 -0.215735,-0.0477 -0.364649,-0.11646 l 0,-0.40283 0.02673,0 q 0.156551,0.0993 0.366559,0.16991 0.210008,0.0687 0.412379,0.0687 0.13555,0 0.261555,-0.0382 0.127913,-0.0382 0.22719,-0.13364 0.084,-0.0821 0.126004,-0.19664 0.04391,-0.11455 0.04391,-0.26538 0,-0.147 -0.05155,-0.24819 -0.04964,-0.10118 -0.139369,-0.16228 -0.09928,-0.0726 -0.242463,-0.10118 -0.141278,-0.0306 -0.316921,-0.0306 -0.168006,0 -0.324557,0.0229 -0.154642,0.0229 -0.267283,0.0458 l 0,-1.46433 1.710608,0 0,0.33411 -1.34214,0 0,0.75603 q 0.08209,-0.008 0.168006,-0.0115 0.08591,-0.004 0.148915,-0.004 0.231008,0 0.404742,0.0401 0.173733,0.0382 0.31883,0.13746 0.152732,0.10501 0.236736,0.2711 0.084,0.1661 0.084,0.4162 z"
         id="path4214"
         inkscape:connector-curvature="0" />
    </g>
    <g
       style="font-style:normal;font-weight:normal;font-size:3.90996099px;line-height:125%;font-family:Sans;letter-spacing:0px;word-spacing:0px;display:inline;fill:#000000;fill-opacity:1;stroke:none;stroke-width:1px;stroke-linecap:butt;stroke-linejoin:miter;stroke-opacity:1"
       id="text4195"
       transform="translate(289.57365,55.728809)">
      <path
         d="m 56.281725,204.55555 q 0,0.36847 -0.288283,0.61284 -0.286374,0.24438 -0.721663,0.24438 -0.462017,0 -0.736936,-0.23865 -0.27301,-0.23864 -0.27301,-0.61093 0,-0.23674 0.13746,-0.42765 0.137459,-0.19283 0.387559,-0.30547 l 0,-0.0114 q -0.229099,-0.12219 -0.33983,-0.26729 -0.108823,-0.14509 -0.108823,-0.36274 0,-0.32074 0.263465,-0.53456 0.263464,-0.21383 0.670115,-0.21383 0.425743,0 0.679661,0.20428 0.253919,0.20428 0.253919,0.51929 0,0.19283 -0.120278,0.37993 -0.120277,0.18519 -0.353194,0.29019 l 0,0.0115 q 0.267282,0.11454 0.40856,0.28255 0.141278,0.16801 0.141278,0.42765 z m -0.452471,-1.38796 q 0,-0.20428 -0.15846,-0.32455 -0.156552,-0.12219 -0.400924,-0.12219 -0.240554,0 -0.395196,0.11455 -0.152733,0.11455 -0.152733,0.30928 0,0.13746 0.07637,0.23865 0.07828,0.0993 0.234827,0.17755 0.07064,0.0344 0.202371,0.0897 0.133641,0.0554 0.259646,0.0916 0.189007,-0.126 0.261555,-0.26155 0.07255,-0.13555 0.07255,-0.31311 z m 0.05918,1.42424 q 0,-0.17565 -0.07828,-0.28065 -0.07637,-0.10691 -0.301647,-0.21383 -0.08973,-0.042 -0.196644,-0.0783 -0.106913,-0.0363 -0.284465,-0.10119 -0.171824,0.0935 -0.276828,0.25392 -0.103095,0.16037 -0.103095,0.36274 0,0.25774 0.177552,0.42575 0.177552,0.168 0.450562,0.168 0.278738,0 0.444835,-0.14319 0.168006,-0.14318 0.168006,-0.39328 z"
         id="path4211"
         inkscape:connector-curvature="0" />
    </g>
    <text
       sodipodi:linespacing="125%"
       id="text4188"
       y="261.72775"
       x="384.48447"
       style="font-style:normal;font-weight:normal;font-size:5.65182781px;line-height:125%;font-family:Sans;letter-spacing:0px;word-spacing:0px;display:inline;fill:#000000;fill-opacity:1;stroke:none;stroke-width:1px;stroke-linecap:butt;stroke-linejoin:miter;stroke-opacity:1"
       xml:space="preserve"><tspan
         y="261.72775"
         x="384.48447"
         id="tspan4190"
         sodipodi:role="line">Xout</tspan></text>
    <text
       xml:space="preserve"
       style="font-style:normal;font-weight:normal;font-size:5.65182781px;line-height:125%;font-family:Sans;letter-spacing:0px;word-spacing:0px;display:inline;fill:#000000;fill-opacity:1;stroke:none;stroke-width:1px;stroke-linecap:butt;stroke-linejoin:miter;stroke-opacity:1"
       x="384.50754"
       y="282.05838"
       id="text4192"
       sodipodi:linespacing="125%"><tspan
         sodipodi:role="line"
         id="tspan4194"
         x="384.50754"
         y="282.05838">Yout</tspan></text>
    <text
       xml:space="preserve"
       style="font-style:normal;font-weight:normal;font-size:12.51558018px;line-height:125%;font-family:Sans;letter-spacing:0px;word-spacing:0px;display:inline;fill:#000000;fill-opacity:1;stroke:none;stroke-width:1px;stroke-linecap:butt;stroke-linejoin:miter;stroke-opacity:1"
       x="302.22733"
       y="274.33389"
       id="text4202"
       sodipodi:linespacing="125%"><tspan
         sodipodi:role="line"
         id="tspan4204"
         x="302.22733"
         y="274.33389">A1</tspan></text>
    <text
       sodipodi:linespacing="125%"
       id="text4206"
       y="274.33386"
       x="386.22217"
       style="font-style:normal;font-weight:normal;font-size:12.51558018px;line-height:125%;font-family:Sans;letter-spacing:0px;word-spacing:0px;display:inline;fill:#000000;fill-opacity:1;stroke:none;stroke-width:1px;stroke-linecap:butt;stroke-linejoin:miter;stroke-opacity:1"
       xml:space="preserve"><tspan
         y="274.33386"
         x="386.22217"
         id="tspan4208"
         sodipodi:role="line">A2</tspan></text>
    <text
       sodipodi:linespacing="125%"
       id="text4210"
       y="316.3313"
       x="343.68085"
       style="font-style:normal;font-weight:normal;font-size:12.51558018px;line-height:125%;font-family:Sans;letter-spacing:0px;word-spacing:0px;display:inline;fill:#000000;fill-opacity:1;stroke:none;stroke-width:1px;stroke-linecap:butt;stroke-linejoin:miter;stroke-opacity:1"
       xml:space="preserve"><tspan
         y="316.3313"
         x="343.68085"
         id="tspan4212"
         sodipodi:role="line">B1</tspan></text>
    <text
       xml:space="preserve"
       style="font-style:normal;font-weight:normal;font-size:12.51558018px;line-height:125%;font-family:Sans;letter-spacing:0px;word-spacing:0px;display:inline;fill:#000000;fill-opacity:1;stroke:none;stroke-width:1px;stroke-linecap:butt;stroke-linejoin:miter;stroke-opacity:1"
       x="263.52856"
       y="229.3239"
       id="text4214"
       sodipodi:linespacing="125%"><tspan
         sodipodi:role="line"
         id="tspan4216"
         x="263.52856"
         y="229.3239">B2</tspan></text>
    <text
       xml:space="preserve"
       style="font-style:normal;font-weight:normal;font-size:5.65182781px;line-height:125%;font-family:Sans;letter-spacing:0px;word-spacing:0px;display:inline;fill:#000000;fill-opacity:1;stroke:none;stroke-width:1px;stroke-linecap:butt;stroke-linejoin:miter;stroke-opacity:1"
       x="324.35135"
       y="250.71701"
       id="text4282"
       sodipodi:linespacing="125%"><tspan
         sodipodi:role="line"
         id="tspan4284"
         x="324.35135"
         y="250.71701">Gnd</tspan></text>
    <text
       sodipodi:linespacing="125%"
       id="text4286"
       y="292.09213"
       x="324.57346"
       style="font-style:normal;font-weight:normal;font-size:5.65182781px;line-height:125%;font-family:Sans;letter-spacing:0px;word-spacing:0px;display:inline;fill:#000000;fill-opacity:1;stroke:none;stroke-width:1px;stroke-linecap:butt;stroke-linejoin:miter;stroke-opacity:1"
       xml:space="preserve"><tspan
         y="292.09213"
         x="324.57346"
         id="tspan4288"
         sodipodi:role="line">Vdd</tspan></text>
  </g>
  <g
     inkscape:label="Copper"
     inkscape:groupmode="layer"
     id="layer1"
     style="display:none"
     transform="translate(-86.009915,-527.87891)">
    <path
       style="color:#000000;clip-rule:nonzero;display:inline;overflow:visible;visibility:visible;opacity:1;isolation:auto;mix-blend-mode:normal;color-interpolation:sRGB;color-interpolation-filters:linearRGB;solid-color:#000000;solid-opacity:1;fill:none;fill-opacity:1;fill-rule:evenodd;stroke:#ff0000;stroke-width:0.17716534;stroke-linecap:round;stroke-linejoin:miter;stroke-miterlimit:4;stroke-dasharray:none;stroke-dashoffset:0;stroke-opacity:1;marker:none;color-rendering:auto;image-rendering:auto;shape-rendering:auto;text-rendering:auto;enable-background:accumulate"
       d="m 328.13225,271.60957 0,5.31445 1.31836,0 0,2.13573 0,1.79296 1.79297,0 12.40039,0 0,2.25586 2.55078,0 0,-6.30664 -2.55078,0 0,2.25782 -12.40039,0 0,-2.13573 1.31835,0 0,-5.31445 z"
       id="use4156"
       inkscape:connector-curvature="0"
       sodipodi:nodetypes="ccccccccccccccccc" />
    <path
       style="color:#000000;clip-rule:nonzero;display:inline;overflow:visible;visibility:visible;opacity:1;isolation:auto;mix-blend-mode:normal;color-interpolation:sRGB;color-interpolation-filters:linearRGB;solid-color:#000000;solid-opacity:1;fill:none;fill-opacity:1;fill-rule:evenodd;stroke:#ff0000;stroke-width:0.17716534;stroke-linecap:round;stroke-linejoin:miter;stroke-miterlimit:4;stroke-dasharray:none;stroke-dashoffset:0;stroke-opacity:1;marker:none;color-rendering:auto;image-rendering:auto;shape-rendering:auto;text-rendering:auto;enable-background:accumulate"
       d="m 357.64201,256.46404 0,6.30664 2.55078,0 0,-2.27539 3.07422,0 0,3.14063 4.42969,0 0,-3.14063 11.55469,0 0,1.7793 4.42969,0 0,-5.31445 -4.42969,0 0,1.77929 -11.55469,0 0,-0.41797 -4.42969,0 0,0.41797 -3.07422,0 0,-2.27539 -2.55078,0 z"
       id="use4166"
       inkscape:connector-curvature="0" />
    <path
       style="color:#000000;clip-rule:nonzero;display:inline;overflow:visible;visibility:visible;opacity:1;isolation:auto;mix-blend-mode:normal;color-interpolation:sRGB;color-interpolation-filters:linearRGB;solid-color:#000000;solid-opacity:1;fill:none;fill-opacity:1;fill-rule:evenodd;stroke:#ff0000;stroke-width:0.17716534;stroke-linecap:round;stroke-linejoin:miter;stroke-miterlimit:4;stroke-dasharray:none;stroke-dashoffset:0;stroke-opacity:1;marker:none;color-rendering:auto;image-rendering:auto;shape-rendering:auto;text-rendering:auto;enable-background:accumulate"
       d="m 371.61662,276.04021 0,3.03907 -11.92187,0 0,-2.27735 -2.55078,0 0,6.30664 2.55078,0 0,-2.27539 11.92187,0 0,0.52149 4.42969,0 0,-0.52149 2.70703,0 0,1.7793 4.42969,0 0,-5.31445 -4.42969,0 0,1.78125 -2.70703,0 0,-3.03907 -4.42969,0 z"
       id="use4168"
       inkscape:connector-curvature="0" />
    <rect
       style="color:#000000;clip-rule:nonzero;display:inline;overflow:visible;visibility:visible;opacity:1;isolation:auto;mix-blend-mode:normal;color-interpolation:sRGB;color-interpolation-filters:linearRGB;solid-color:#000000;solid-opacity:1;fill:none;fill-opacity:1;fill-rule:evenodd;stroke:#ff0000;stroke-width:0.17716533;stroke-linecap:round;stroke-linejoin:miter;stroke-miterlimit:4;stroke-dasharray:none;stroke-dashoffset:0;stroke-opacity:1;marker:none;color-rendering:auto;image-rendering:auto;shape-rendering:auto;text-rendering:auto;enable-background:accumulate"
       id="rect4363"
       width="61.130558"
       height="44.666862"
       x="325.28781"
       y="248.38004" />
    <path
       style="color:#000000;clip-rule:nonzero;display:inline;overflow:visible;visibility:visible;opacity:1;isolation:auto;mix-blend-mode:normal;color-interpolation:sRGB;color-interpolation-filters:linearRGB;solid-color:#000000;solid-opacity:1;fill:none;fill-opacity:1;fill-rule:evenodd;stroke:#ff0000;stroke-width:0.17716534;stroke-linecap:round;stroke-linejoin:miter;stroke-miterlimit:4;stroke-dasharray:none;stroke-dashoffset:0;stroke-opacity:1;marker:none;color-rendering:auto;image-rendering:auto;shape-rendering:auto;text-rendering:auto;enable-background:accumulate"
       d="m 336.27052,249.92832 0,5.31445 4.42969,0 0,-1.7207 3.32227,0 0,3.04297 -0.37891,0 0,2.35546 -4.36133,0 -1.59375,0 0,1.59571 0,2.23437 -1.41797,0 0,1.75586 -3.70898,0 0,-1.75586 -4.42969,0 0,5.31446 4.42969,0 0,-1.75586 3.70898,0 0,1.75586 4.42969,0 0,-5.31446 -1.41797,0 0,-2.23437 4.36133,0 0,2.35547 2.55078,0 0,-6.30664 -0.37891,0 0,-3.06055 7.26172,0 0,3.06055 -0.3789,0 0,6.30664 0.39648,0 0,6.08789 0,1.7539 1.75586,0 8.41602,0 0,1.78125 4.42968,0 0,-1.78125 3.91993,0 0,1.78125 4.42968,0 0,-5.31445 -4.42968,0 0,1.7793 -3.91993,0 0,-1.7793 -4.42968,0 0,1.7793 -8.41602,0 0,-6.08789 0.39844,0 0,-6.30664 -0.37891,0 0,-3.06055 0.006,0 0,-1.83789 -10.85351,0 -3.32227,0 0,-1.73828 z m 11.86719,6.63672 0,6.30664 0.36914,0 0,10.52343 -7.80664,0 0,-1.78515 -4.42969,0 0,5.31445 4.42969,0 0,-1.78515 7.80664,0 0,1.6621 -0.36914,0 0,2.11719 0,2.07422 0,2.11523 0.4082,0 0,2.4629 -7.8457,0 0,-1.73828 -4.42969,0 0,5.31446 4.42969,0 0,-1.73829 7.8457,0 1.73438,0 0,-1.83789 0,-2.4629 0.4082,0 0,-2.11523 2.00977,0 0,2.11523 2.55078,0 0,-6.30664 -2.55078,0 0,2.11719 -2.00977,0 0,-2.11719 -0.36914,0 0,-13.92968 0.36914,0 0,-6.30664 z"
       id="rect4970"
       inkscape:connector-curvature="0"
       sodipodi:nodetypes="ccccccccccccccccccccccccccccccccccccccccccccccccccccccccccccccccccccccccccccccccccccccccccccccccccccccccccccc" />
  </g>
</svg>
